<svg xmlns="http://www.w3.org/2000/svg" id="export" class="canvas" preserveAspectRatio="xMidYMid meet" style="width: 1433px; height: 395px;" width="1252" height="214"><rect id="background" fill="#fff" pointer-events="all" width="1252" height="214"/><g id="origin" transform="translate(9.71455078125, 9.71455078125) scale(1)"><g id="clusters" class="clusters"/><g id="edge-paths" class="edge-paths"><defs><marker id="arrowhead-vee" viewBox="0 0 10 10" refX="9" refY="5" markerUnits="strokeWidth" markerWidth="8" markerHeight="6" orient="auto" style="fill: rgb(0, 0, 0);"><path d="M 0 0 L 10 5 L 0 10 L 4 5 z" style="stroke-width: 1;"/></marker><marker id="arrowhead-vee-select" viewBox="0 0 10 10" refX="9" refY="5" markerUnits="strokeWidth" markerWidth="8" markerHeight="6" orient="auto" style="fill: rgb(238, 0, 0);"><path d="M 0 0 L 10 5 L 0 10 L 4 5 z" style="stroke-width: 1;"/></marker></defs><path id="edge-input_images" class="edge-path" d="M84.5625,183.7705078125L86.22916666666667,183.7705078125C87.89583333333333,183.7705078125,91.22916666666667,183.7705078125,96.90494791666667,183.7705078125C102.58072916666667,183.7705078125,110.59895833333333,183.7705078125,118.6171875,183.7705078125C126.63541666666667,183.7705078125,134.65364583333334,183.7705078125,140.32942708333334,183.7705078125C146.00520833333334,183.7705078125,149.33854166666666,183.7705078125,151.00520833333334,183.7705078125L152.671875,183.7705078125" style="stroke: rgb(0, 0, 0); stroke-width: 1px; fill: none; marker-end: url(&quot;#arrowhead-vee&quot;);"/><path id="edge-fc1.1.weight" class="edge-path" d="M921.140625,10.5205078125L922.8072916666666,10.5205078125C924.4739583333334,10.5205078125,927.8072916666666,10.5205078125,936.0625,10.5205078125C944.3177083333334,10.5205078125,957.4947916666666,10.5205078125,970.671875,10.5205078125C983.8489583333334,10.5205078125,997.0260416666666,10.5205078125,1006.4440104166666,12.2705078125C1015.8619791666666,14.0205078125,1021.5208333333334,17.5205078125,1024.3502604166667,19.2705078125L1027.1796875,21.0205078125" style="stroke: rgb(0, 0, 0); stroke-width: 1px; fill: none; marker-end: url(&quot;#arrowhead-vee&quot;);"/><path id="edge-fc1.1.bias" class="edge-path" d="M914.890625,52.5205078125L917.5989583333334,52.5205078125C920.3072916666666,52.5205078125,925.7239583333334,52.5205078125,935.0208333333334,52.5205078125C944.3177083333334,52.5205078125,957.4947916666666,52.5205078125,970.671875,52.5205078125C983.8489583333334,52.5205078125,997.0260416666666,52.5205078125,1006.4440104166666,50.7705078125C1015.8619791666666,49.0205078125,1021.5208333333334,45.5205078125,1024.3502604166667,43.7705078125L1027.1796875,42.0205078125" style="stroke: rgb(0, 0, 0); stroke-width: 1px; fill: none; marker-end: url(&quot;#arrowhead-vee&quot;);"/><path id="edge-42" class="edge-path" d="M132.546875,89.2705078125L134.234375,89.2705078125C135.921875,89.2705078125,139.296875,89.2705078125,147.57291666666666,89.2705078125C155.84895833333334,89.2705078125,169.02604166666666,89.2705078125,182.203125,89.2705078125C195.38020833333334,89.2705078125,208.55729166666666,89.2705078125,219.43279246794873,98.8955078125C230.3082932692308,108.5205078125,238.88221153846155,127.7705078125,243.16917067307693,137.3955078125L247.45612980769232,147.0205078125" style="stroke: rgb(0, 0, 0); stroke-width: 1px; fill: none; marker-end: url(&quot;#arrowhead-vee&quot;);"/><path id="edge-43" class="edge-path" d="M132.671875,131.2705078125L134.33854166666666,131.2705078125C136.00520833333334,131.2705078125,139.33854166666666,131.2705078125,147.59375,131.2705078125C155.84895833333334,131.2705078125,169.02604166666666,131.2705078125,182.203125,131.2705078125C195.38020833333334,131.2705078125,208.55729166666666,131.2705078125,218.18567708333333,133.8955078125C227.8140625,136.5205078125,233.89374999999998,141.7705078125,236.93359375,144.3955078125L239.9734375,147.0205078125" style="stroke: rgb(0, 0, 0); stroke-width: 1px; fill: none; marker-end: url(&quot;#arrowhead-vee&quot;);"/><path id="edge-45" class="edge-path" d="M340.2265625,63.0205078125L345.1731770833333,63.0205078125C350.1197916666667,63.0205078125,360.0130208333333,63.0205078125,371.8255208333333,63.0205078125C383.6380208333333,63.0205078125,397.3697916666667,63.0205078125,411.1015625,63.0205078125C424.8333333333333,63.0205078125,438.5651041666667,63.0205078125,449.71794871794873,72.6455078125C460.8707932692308,82.2705078125,469.4447115384616,101.5205078125,473.73167067307696,111.1455078125L478.0186298076923,120.7705078125" style="stroke: rgb(0, 0, 0); stroke-width: 1px; fill: none; marker-end: url(&quot;#arrowhead-vee&quot;);"/><path id="edge-46" class="edge-path" d="M340.328125,105.0205078125L345.2578125,105.0205078125C350.1875,105.0205078125,360.046875,105.0205078125,371.8424479166667,105.0205078125C383.6380208333333,105.0205078125,397.3697916666667,105.0205078125,411.1015625,105.0205078125C424.8333333333333,105.0205078125,438.5651041666667,105.0205078125,448.4708333333333,107.6455078125C458.37656250000003,110.2705078125,464.45625,115.5205078125,467.49609375,118.1455078125L470.5359375,120.7705078125" style="stroke: rgb(0, 0, 0); stroke-width: 1px; fill: none; marker-end: url(&quot;#arrowhead-vee&quot;);"/><path id="edge-48" class="edge-path" d="M570.8984384536743,36.7705078125L575.8268237113953,36.7705078125C580.7552089691162,36.7705078125,590.6119794845581,36.7705078125,602.8971355756124,36.7705078125C615.1822916666666,36.7705078125,629.8958333333334,36.7705078125,644.609375,36.7705078125C659.3229166666666,36.7705078125,674.0364583333334,36.7705078125,685.6801883012821,46.3955078125C697.3239182692308,56.0205078125,705.8978365384615,75.2705078125,710.1847956730768,84.8955078125L714.4717548076923,94.5205078125" style="stroke: rgb(0, 0, 0); stroke-width: 1px; fill: none; marker-end: url(&quot;#arrowhead-vee&quot;);"/><path id="edge-49" class="edge-path" d="M570.890625,78.7705078125L575.8203125,78.7705078125C580.75,78.7705078125,590.609375,78.7705078125,602.8958333333334,78.7705078125C615.1822916666666,78.7705078125,629.8958333333334,78.7705078125,644.609375,78.7705078125C659.3229166666666,78.7705078125,674.0364583333334,78.7705078125,684.4330729166667,81.3955078125C694.8296875,84.0205078125,700.9093750000001,89.2705078125,703.94921875,91.8955078125L706.9890625,94.5205078125" style="stroke: rgb(0, 0, 0); stroke-width: 1px; fill: none; marker-end: url(&quot;#arrowhead-vee&quot;);"/><path id="edge-25" class="edge-path" d="M211.734375,183.7705078125L213.40104166666666,183.7705078125C215.06770833333334,183.7705078125,218.40104166666666,183.7705078125,223.10755208333333,181.1455078125C227.8140625,178.5205078125,233.89374999999998,173.2705078125,236.93359375,170.6455078125L239.9734375,168.0205078125" style="stroke: rgb(0, 0, 0); stroke-width: 1px; fill: none; marker-end: url(&quot;#arrowhead-vee&quot;);"/><path id="edge-41" class="edge-path" d="M272.53125,157.5205078125L274.1979166666667,157.5205078125C275.8645833333333,157.5205078125,279.1979166666667,157.5205078125,282.53125,157.5205078125C285.8645833333333,157.5205078125,289.1979166666667,157.5205078125,290.8645833333333,157.5205078125L292.53125,157.5205078125" style="stroke: rgb(0, 0, 0); stroke-width: 1px; fill: none; marker-end: url(&quot;#arrowhead-vee&quot;);"/><path id="edge-28" class="edge-path" d="M359.90625,157.5205078125L361.5729166666667,157.5205078125C363.2395833333333,157.5205078125,366.5729166666667,157.5205078125,370.2291666666667,157.5205078125C373.8854166666667,157.5205078125,377.8645833333333,157.5205078125,379.8541666666667,157.5205078125L381.84375,157.5205078125" style="stroke: rgb(0, 0, 0); stroke-width: 1px; fill: none; marker-end: url(&quot;#arrowhead-vee&quot;);"/><path id="edge-29" class="edge-path" d="M440.359375,157.5205078125L442.3489583333333,157.5205078125C444.3385416666667,157.5205078125,448.3177083333333,157.5205078125,453.3471354166666,154.8955078125C458.37656250000003,152.2705078125,464.45625,147.0205078125,467.49609375,144.3955078125L470.5359375,141.7705078125" style="stroke: rgb(0, 0, 0); stroke-width: 1px; fill: none; marker-end: url(&quot;#arrowhead-vee&quot;);"/><path id="edge-44" class="edge-path" d="M503.09375,131.2705078125L504.7604166666667,131.2705078125C506.4270833333333,131.2705078125,509.7604166666667,131.2705078125,513.09375,131.2705078125C516.4270833333334,131.2705078125,519.7604166666666,131.2705078125,521.4270833333334,131.2705078125L523.09375,131.2705078125" style="stroke: rgb(0, 0, 0); stroke-width: 1px; fill: none; marker-end: url(&quot;#arrowhead-vee&quot;);"/><path id="edge-32" class="edge-path" d="M590.46875,131.2705078125L592.1354166666666,131.2705078125C593.8020833333334,131.2705078125,597.1354166666666,131.2705078125,601.2825520833334,131.2705078125C605.4296875,131.2705078125,610.390625,131.2705078125,612.87109375,131.2705078125L615.3515625,131.2705078125" style="stroke: rgb(0, 0, 0); stroke-width: 1px; fill: none; marker-end: url(&quot;#arrowhead-vee&quot;);"/><path id="edge-33" class="edge-path" d="M673.8671875,131.2705078125L676.34765625,131.2705078125C678.828125,131.2705078125,683.7890625,131.2705078125,689.3093749999999,128.6455078125C694.8296875,126.0205078125,700.9093750000001,120.7705078125,703.94921875,118.1455078125L706.9890625,115.5205078125" style="stroke: rgb(0, 0, 0); stroke-width: 1px; fill: none; marker-end: url(&quot;#arrowhead-vee&quot;);"/><path id="edge-47" class="edge-path" d="M739.546875,105.0205078125L741.2135416666666,105.0205078125C742.8802083333334,105.0205078125,746.2135416666666,105.0205078125,749.546875,105.0205078125C752.8802083333334,105.0205078125,756.2135416666666,105.0205078125,757.8802083333334,105.0205078125L759.546875,105.0205078125" style="stroke: rgb(0, 0, 0); stroke-width: 1px; fill: none; marker-end: url(&quot;#arrowhead-vee&quot;);"/><path id="edge-36" class="edge-path" d="M826.921875,105.0205078125L828.5885416666666,105.0205078125C830.2552083333334,105.0205078125,833.5885416666666,105.0205078125,838.23046875,105.0205078125C842.8723958333334,105.0205078125,848.8229166666666,105.0205078125,851.7981770833334,105.0205078125L854.7734375,105.0205078125" style="stroke: rgb(0, 0, 0); stroke-width: 1px; fill: none; marker-end: url(&quot;#arrowhead-vee&quot;);"/><path id="edge-37" class="edge-path" d="M913.2890625,105.0205078125L916.2643229166666,105.0205078125C919.2395833333334,105.0205078125,925.1901041666666,105.0205078125,929.83203125,105.0205078125C934.4739583333334,105.0205078125,937.8072916666666,105.0205078125,939.4739583333334,105.0205078125L941.140625,105.0205078125" style="stroke: rgb(0, 0, 0); stroke-width: 1px; fill: none; marker-end: url(&quot;#arrowhead-vee&quot;);"/><path id="edge-39" class="edge-path" d="M1000.203125,105.0205078125L1001.8697916666666,105.0205078125C1003.5364583333334,105.0205078125,1006.8697916666666,105.0205078125,1013.3869047619047,94.5205078125C1019.9040178571428,84.0205078125,1029.6049107142858,63.0205078125,1034.455357142857,52.5205078125L1039.3058035714287,42.0205078125" style="stroke: rgb(0, 0, 0); stroke-width: 1px; fill: none; marker-end: url(&quot;#arrowhead-vee&quot;);"/><path id="edge-output_prob" class="edge-path" d="M1068.109375,31.5205078125L1075.1796875,31.5205078125C1082.25,31.5205078125,1096.390625,31.5205078125,1110.53125,31.5205078125C1124.671875,31.5205078125,1138.8125,31.5205078125,1145.8828125,31.5205078125L1152.953125,31.5205078125" style="stroke: rgb(0, 0, 0); stroke-width: 1px; fill: none; marker-end: url(&quot;#arrowhead-vee&quot;);"/></g><g id="edge-labels" class="edge-labels"><text class="edge-label" id="edge-label-edge-fc1.1.weight" style="opacity: 1; font-family: -apple-system, BlinkMacSystemFont, &quot;Segoe WPC&quot;, &quot;Segoe UI&quot;, Ubuntu, &quot;Droid Sans&quot;, sans-serif, &quot;PingFang SC&quot;; font-size: 10px;" transform="translate(948.1953125,20.5205078125)"><tspan xml:space="preserve" dy="1em" x="1">2×46080</tspan></text><text class="edge-label" id="edge-label-edge-fc1.1.bias" style="opacity: 1; font-family: -apple-system, BlinkMacSystemFont, &quot;Segoe WPC&quot;, &quot;Segoe UI&quot;, Ubuntu, &quot;Droid Sans&quot;, sans-serif, &quot;PingFang SC&quot;; font-size: 10px;" transform="translate(967.59375,62.5205078125)"><tspan xml:space="preserve" dy="1em" x="1">2</tspan></text><text class="edge-label" id="edge-label-edge-42" style="opacity: 1; font-family: -apple-system, BlinkMacSystemFont, &quot;Segoe WPC&quot;, &quot;Segoe UI&quot;, Ubuntu, &quot;Droid Sans&quot;, sans-serif, &quot;PingFang SC&quot;; font-size: 10px;" transform="translate(157.3359375,99.2705078125)"><tspan xml:space="preserve" dy="1em" x="1">64×1×5×3</tspan></text><text class="edge-label" id="edge-label-edge-43" style="opacity: 1; font-family: -apple-system, BlinkMacSystemFont, &quot;Segoe WPC&quot;, &quot;Segoe UI&quot;, Ubuntu, &quot;Droid Sans&quot;, sans-serif, &quot;PingFang SC&quot;; font-size: 10px;" transform="translate(175.6796875,141.2705078125)"><tspan xml:space="preserve" dy="1em" x="1">64</tspan></text><text class="edge-label" id="edge-label-edge-45" style="opacity: 1; font-family: -apple-system, BlinkMacSystemFont, &quot;Segoe WPC&quot;, &quot;Segoe UI&quot;, Ubuntu, &quot;Droid Sans&quot;, sans-serif, &quot;PingFang SC&quot;; font-size: 10px;" transform="translate(379.90625,73.0205078125)"><tspan xml:space="preserve" dy="1em" x="1">128×64×5×3</tspan></text><text class="edge-label" id="edge-label-edge-46" style="opacity: 1; font-family: -apple-system, BlinkMacSystemFont, &quot;Segoe WPC&quot;, &quot;Segoe UI&quot;, Ubuntu, &quot;Droid Sans&quot;, sans-serif, &quot;PingFang SC&quot;; font-size: 10px;" transform="translate(402.390625,115.0205078125)"><tspan xml:space="preserve" dy="1em" x="1">128</tspan></text><text class="edge-label" id="edge-label-edge-48" style="opacity: 1; font-family: -apple-system, BlinkMacSystemFont, &quot;Segoe WPC&quot;, &quot;Segoe UI&quot;, Ubuntu, &quot;Droid Sans&quot;, sans-serif, &quot;PingFang SC&quot;; font-size: 10px;" transform="translate(610.46875,46.7705078125)"><tspan xml:space="preserve" dy="1em" x="1">256×128×5×3</tspan></text><text class="edge-label" id="edge-label-edge-49" style="opacity: 1; font-family: -apple-system, BlinkMacSystemFont, &quot;Segoe WPC&quot;, &quot;Segoe UI&quot;, Ubuntu, &quot;Droid Sans&quot;, sans-serif, &quot;PingFang SC&quot;; font-size: 10px;" transform="translate(635.140625,88.7705078125)"><tspan xml:space="preserve" dy="1em" x="1">256</tspan></text><text class="edge-label" id="edge-label-edge-output_prob" style="opacity: 1; font-family: -apple-system, BlinkMacSystemFont, &quot;Segoe WPC&quot;, &quot;Segoe UI&quot;, Ubuntu, &quot;Droid Sans&quot;, sans-serif, &quot;PingFang SC&quot;; font-size: 10px;" transform="translate(1078.109375,41.5205078125)"><tspan xml:space="preserve" dy="1em" x="1">batch_size×2</tspan></text></g><g id="nodes" class="nodes"><g id="input-name-input_images" class="node graph-input" transform="translate(0,173.25)" style="opacity: 1;"><g class="node-item graph-item-input" transform="translate(0,0)"><path d="M5,0h74.5625a5,5 0 0 1 5,5v11.041015625a5,5 0 0 1 -5,5h-74.5625a5,5 0 0 1 -5,-5v-11.041015625a5,5 0 0 1 5,-5z" style="stroke: rgb(0, 0, 0); fill: rgb(238, 238, 238); stroke-width: 0;"/><text x="6" y="15" style="font-family: -apple-system, BlinkMacSystemFont, &quot;Segoe WPC&quot;, &quot;Segoe UI&quot;, Ubuntu, &quot;Droid Sans&quot;, sans-serif, &quot;PingFang SC&quot;; font-size: 11px; text-rendering: geometricprecision;">input_images</text><title>float32[batch_size,1,64,60]</title></g><path class="node border" d="M5,0h74.5625a5,5 0 0 1 5,5v11.041015625a5,5 0 0 1 -5,5h-74.5625a5,5 0 0 1 -5,-5v-11.041015625a5,5 0 0 1 5,-5z" style="stroke: rgb(51, 51, 51); fill: none; stroke-width: 1px;"/></g><g id="input-name-fc1.1.weight" class="node graph-input" transform="translate(846.921875,0)" style="opacity: 1;"><g class="node-item graph-item-input" transform="translate(0,0)"><path d="M5,0h64.21875a5,5 0 0 1 5,5v11.041015625a5,5 0 0 1 -5,5h-64.21875a5,5 0 0 1 -5,-5v-11.041015625a5,5 0 0 1 5,-5z" style="stroke: rgb(0, 0, 0); fill: rgb(238, 238, 238); stroke-width: 0;"/><text x="6" y="15" style="font-family: -apple-system, BlinkMacSystemFont, &quot;Segoe WPC&quot;, &quot;Segoe UI&quot;, Ubuntu, &quot;Droid Sans&quot;, sans-serif, &quot;PingFang SC&quot;; font-size: 11px; text-rendering: geometricprecision;">fc1.1.weight</text><title>float32[2,46080]</title></g><path class="node border" d="M5,0h64.21875a5,5 0 0 1 5,5v11.041015625a5,5 0 0 1 -5,5h-64.21875a5,5 0 0 1 -5,-5v-11.041015625a5,5 0 0 1 5,-5z" style="stroke: rgb(51, 51, 51); fill: none; stroke-width: 1px;"/></g><g id="input-name-fc1.1.bias" class="node graph-input" transform="translate(853.171875,42.0205078125)" style="opacity: 1;"><g class="node-item graph-item-input" transform="translate(0,0)"><path d="M5,0h51.71875a5,5 0 0 1 5,5v11a5,5 0 0 1 -5,5h-51.71875a5,5 0 0 1 -5,-5v-11a5,5 0 0 1 5,-5z" style="stroke: rgb(0, 0, 0); fill: rgb(238, 238, 238); stroke-width: 0;"/><text x="6" y="15" style="font-family: -apple-system, BlinkMacSystemFont, &quot;Segoe WPC&quot;, &quot;Segoe UI&quot;, Ubuntu, &quot;Droid Sans&quot;, sans-serif, &quot;PingFang SC&quot;; font-size: 11px; text-rendering: geometricprecision;">fc1.1.bias</text><title>float32[2]</title></g><path class="node border" d="M5,0h51.71875a5,5 0 0 1 5,5v11a5,5 0 0 1 -5,5h-51.71875a5,5 0 0 1 -5,-5v-11a5,5 0 0 1 5,-5z" style="stroke: rgb(51, 51, 51); fill: none; stroke-width: 1px;"/></g><g id="input-name-42" class="node graph-input" transform="translate(104.6875,78.7705078125)" style="opacity: 1;"><g class="node-item graph-item-input" transform="translate(0,0)"><path d="M5,0h17.859375a5,5 0 0 1 5,5v11a5,5 0 0 1 -5,5h-17.859375a5,5 0 0 1 -5,-5v-11a5,5 0 0 1 5,-5z" style="stroke: rgb(0, 0, 0); fill: rgb(238, 238, 238); stroke-width: 0;"/><text x="6" y="15" style="font-family: -apple-system, BlinkMacSystemFont, &quot;Segoe WPC&quot;, &quot;Segoe UI&quot;, Ubuntu, &quot;Droid Sans&quot;, sans-serif, &quot;PingFang SC&quot;; font-size: 11px; text-rendering: geometricprecision;">42</text><title>float32[64,1,5,3]</title></g><path class="node border" d="M5,0h17.859375a5,5 0 0 1 5,5v11a5,5 0 0 1 -5,5h-17.859375a5,5 0 0 1 -5,-5v-11a5,5 0 0 1 5,-5z" style="stroke: rgb(51, 51, 51); fill: none; stroke-width: 1px;"/></g><g id="input-name-43" class="node graph-input" transform="translate(104.5625,120.7705078125)" style="opacity: 1;"><g class="node-item graph-item-input" transform="translate(0,0)"><path d="M5,0h18.109375a5,5 0 0 1 5,5v11a5,5 0 0 1 -5,5h-18.109375a5,5 0 0 1 -5,-5v-11a5,5 0 0 1 5,-5z" style="stroke: rgb(0, 0, 0); fill: rgb(238, 238, 238); stroke-width: 0;"/><text x="6" y="15" style="font-family: -apple-system, BlinkMacSystemFont, &quot;Segoe WPC&quot;, &quot;Segoe UI&quot;, Ubuntu, &quot;Droid Sans&quot;, sans-serif, &quot;PingFang SC&quot;; font-size: 11px; text-rendering: geometricprecision;">43</text><title>float32[64]</title></g><path class="node border" d="M5,0h18.109375a5,5 0 0 1 5,5v11a5,5 0 0 1 -5,5h-18.109375a5,5 0 0 1 -5,-5v-11a5,5 0 0 1 5,-5z" style="stroke: rgb(51, 51, 51); fill: none; stroke-width: 1px;"/></g><g id="input-name-45" class="node graph-input" transform="translate(312.2109375,52.5205078125)" style="opacity: 1;"><g class="node-item graph-item-input" transform="translate(0,0)"><path d="M5,0h18.015625a5,5 0 0 1 5,5v11a5,5 0 0 1 -5,5h-18.015625a5,5 0 0 1 -5,-5v-11a5,5 0 0 1 5,-5z" style="stroke: rgb(0, 0, 0); fill: rgb(238, 238, 238); stroke-width: 0;"/><text x="6" y="15" style="font-family: -apple-system, BlinkMacSystemFont, &quot;Segoe WPC&quot;, &quot;Segoe UI&quot;, Ubuntu, &quot;Droid Sans&quot;, sans-serif, &quot;PingFang SC&quot;; font-size: 11px; text-rendering: geometricprecision;">45</text><title>float32[128,64,5,3]</title></g><path class="node border" d="M5,0h18.015625a5,5 0 0 1 5,5v11a5,5 0 0 1 -5,5h-18.015625a5,5 0 0 1 -5,-5v-11a5,5 0 0 1 5,-5z" style="stroke: rgb(51, 51, 51); fill: none; stroke-width: 1px;"/></g><g id="input-name-46" class="node graph-input" transform="translate(312.109375,94.5205078125)" style="opacity: 1;"><g class="node-item graph-item-input" transform="translate(0,0)"><path d="M5,0h18.21875a5,5 0 0 1 5,5v11a5,5 0 0 1 -5,5h-18.21875a5,5 0 0 1 -5,-5v-11a5,5 0 0 1 5,-5z" style="stroke: rgb(0, 0, 0); fill: rgb(238, 238, 238); stroke-width: 0;"/><text x="6" y="15" style="font-family: -apple-system, BlinkMacSystemFont, &quot;Segoe WPC&quot;, &quot;Segoe UI&quot;, Ubuntu, &quot;Droid Sans&quot;, sans-serif, &quot;PingFang SC&quot;; font-size: 11px; text-rendering: geometricprecision;">46</text><title>float32[128]</title></g><path class="node border" d="M5,0h18.21875a5,5 0 0 1 5,5v11a5,5 0 0 1 -5,5h-18.21875a5,5 0 0 1 -5,-5v-11a5,5 0 0 1 5,-5z" style="stroke: rgb(51, 51, 51); fill: none; stroke-width: 1px;"/></g><g id="input-name-48" class="node graph-input" transform="translate(542.6640615463257,26.2705078125)" style="opacity: 1;"><g class="node-item graph-item-input" transform="translate(0,0)"><path d="M5,0h18.234375a5,5 0 0 1 5,5v11a5,5 0 0 1 -5,5h-18.234375a5,5 0 0 1 -5,-5v-11a5,5 0 0 1 5,-5z" style="stroke: rgb(0, 0, 0); fill: rgb(238, 238, 238); stroke-width: 0;"/><text x="6" y="15" style="font-family: -apple-system, BlinkMacSystemFont, &quot;Segoe WPC&quot;, &quot;Segoe UI&quot;, Ubuntu, &quot;Droid Sans&quot;, sans-serif, &quot;PingFang SC&quot;; font-size: 11px; text-rendering: geometricprecision;">48</text><title>float32[256,128,5,3]</title></g><path class="node border" d="M5,0h18.234375a5,5 0 0 1 5,5v11a5,5 0 0 1 -5,5h-18.234375a5,5 0 0 1 -5,-5v-11a5,5 0 0 1 5,-5z" style="stroke: rgb(51, 51, 51); fill: none; stroke-width: 1px;"/></g><g id="input-name-49" class="node graph-input" transform="translate(542.671875,68.2705078125)" style="opacity: 1;"><g class="node-item graph-item-input" transform="translate(0,0)"><path d="M5,0h18.21875a5,5 0 0 1 5,5v11a5,5 0 0 1 -5,5h-18.21875a5,5 0 0 1 -5,-5v-11a5,5 0 0 1 5,-5z" style="stroke: rgb(0, 0, 0); fill: rgb(238, 238, 238); stroke-width: 0;"/><text x="6" y="15" style="font-family: -apple-system, BlinkMacSystemFont, &quot;Segoe WPC&quot;, &quot;Segoe UI&quot;, Ubuntu, &quot;Droid Sans&quot;, sans-serif, &quot;PingFang SC&quot;; font-size: 11px; text-rendering: geometricprecision;">49</text><title>float32[256]</title></g><path class="node border" d="M5,0h18.21875a5,5 0 0 1 5,5v11a5,5 0 0 1 -5,5h-18.21875a5,5 0 0 1 -5,-5v-11a5,5 0 0 1 5,-5z" style="stroke: rgb(51, 51, 51); fill: none; stroke-width: 1px;"/></g><g id="node-name-Reshape_1" class="node graph-node" transform="translate(152.671875,173.2705078125)" style="opacity: 1;"><g class="node-item node-item-type node-item-type-shape" transform="translate(0,0)"><path d="M5,0h49.0625a5,5 0 0 1 5,5v11a5,5 0 0 1 -5,5h-49.0625a5,5 0 0 1 -5,-5v-11a5,5 0 0 1 5,-5z" style="stroke: rgb(0, 0, 0); fill: rgb(108, 79, 71); stroke-width: 0;"/><text x="6" y="15" style="font-family: -apple-system, BlinkMacSystemFont, &quot;Segoe WPC&quot;, &quot;Segoe UI&quot;, Ubuntu, &quot;Droid Sans&quot;, sans-serif, &quot;PingFang SC&quot;; font-size: 11px; text-rendering: geometricprecision; fill: rgb(255, 255, 255);">Reshape</text><title>Reshape_1</title></g><path class="node border" d="M5,0h49.0625a5,5 0 0 1 5,5v11a5,5 0 0 1 -5,5h-49.0625a5,5 0 0 1 -5,-5v-11a5,5 0 0 1 5,-5z" style="stroke: rgb(51, 51, 51); fill: none; stroke-width: 1px;"/></g><g id="node-name-Conv_2" class="node graph-node" transform="translate(231.734375,147.0205078125)" style="opacity: 1;"><g class="node-item node-item-type node-item-type-layer" transform="translate(0,0)"><path d="M5,0h30.796875a5,5 0 0 1 5,5v11a5,5 0 0 1 -5,5h-30.796875a5,5 0 0 1 -5,-5v-11a5,5 0 0 1 5,-5z" style="stroke: rgb(0, 0, 0); fill: rgb(51, 85, 136); stroke-width: 0;"/><text x="6" y="15" style="font-family: -apple-system, BlinkMacSystemFont, &quot;Segoe WPC&quot;, &quot;Segoe UI&quot;, Ubuntu, &quot;Droid Sans&quot;, sans-serif, &quot;PingFang SC&quot;; font-size: 11px; text-rendering: geometricprecision; fill: rgb(255, 255, 255);">Conv</text><title>Conv_2</title></g><path class="node border" d="M5,0h30.796875a5,5 0 0 1 5,5v11a5,5 0 0 1 -5,5h-30.796875a5,5 0 0 1 -5,-5v-11a5,5 0 0 1 5,-5z" style="stroke: rgb(51, 51, 51); fill: none; stroke-width: 1px;"/></g><g id="node-name-LeakyRelu_3" class="node graph-node" transform="translate(292.53125,147.00537109375)" style="opacity: 1;"><g class="node-item node-item-type node-item-type-activation" transform="translate(0,0)"><path d="M5,0h57.375a5,5 0 0 1 5,5v11.0302734375a5,5 0 0 1 -5,5h-57.375a5,5 0 0 1 -5,-5v-11.0302734375a5,5 0 0 1 5,-5z" style="stroke: rgb(0, 0, 0); fill: rgb(112, 41, 33); stroke-width: 0;"/><text x="6" y="15" style="font-family: -apple-system, BlinkMacSystemFont, &quot;Segoe WPC&quot;, &quot;Segoe UI&quot;, Ubuntu, &quot;Droid Sans&quot;, sans-serif, &quot;PingFang SC&quot;; font-size: 11px; text-rendering: geometricprecision; fill: rgb(255, 255, 255);">LeakyRelu</text><title>LeakyRelu_3</title></g><path class="node border" d="M5,0h57.375a5,5 0 0 1 5,5v11.0302734375a5,5 0 0 1 -5,5h-57.375a5,5 0 0 1 -5,-5v-11.0302734375a5,5 0 0 1 5,-5z" style="stroke: rgb(51, 51, 51); fill: none; stroke-width: 1px;"/></g><g id="node-name-MaxPool_4" class="node graph-node" transform="translate(381.84375,147.0205078125)" style="opacity: 1;"><g class="node-item node-item-type node-item-type-pool" transform="translate(0,0)"><path d="M5,0h48.515625a5,5 0 0 1 5,5v11a5,5 0 0 1 -5,5h-48.515625a5,5 0 0 1 -5,-5v-11a5,5 0 0 1 5,-5z" style="stroke: rgb(0, 0, 0); fill: rgb(51, 85, 51); stroke-width: 0;"/><text x="6" y="15" style="font-family: -apple-system, BlinkMacSystemFont, &quot;Segoe WPC&quot;, &quot;Segoe UI&quot;, Ubuntu, &quot;Droid Sans&quot;, sans-serif, &quot;PingFang SC&quot;; font-size: 11px; text-rendering: geometricprecision; fill: rgb(255, 255, 255);">MaxPool</text><title>MaxPool_4</title></g><path class="node border" d="M5,0h48.515625a5,5 0 0 1 5,5v11a5,5 0 0 1 -5,5h-48.515625a5,5 0 0 1 -5,-5v-11a5,5 0 0 1 5,-5z" style="stroke: rgb(51, 51, 51); fill: none; stroke-width: 1px;"/></g><g id="node-name-Conv_5" class="node graph-node" transform="translate(462.296875,120.7705078125)" style="opacity: 1;"><g class="node-item node-item-type node-item-type-layer" transform="translate(0,0)"><path d="M5,0h30.796875a5,5 0 0 1 5,5v11a5,5 0 0 1 -5,5h-30.796875a5,5 0 0 1 -5,-5v-11a5,5 0 0 1 5,-5z" style="stroke: rgb(0, 0, 0); fill: rgb(51, 85, 136); stroke-width: 0;"/><text x="6" y="15" style="font-family: -apple-system, BlinkMacSystemFont, &quot;Segoe WPC&quot;, &quot;Segoe UI&quot;, Ubuntu, &quot;Droid Sans&quot;, sans-serif, &quot;PingFang SC&quot;; font-size: 11px; text-rendering: geometricprecision; fill: rgb(255, 255, 255);">Conv</text><title>Conv_5</title></g><path class="node border" d="M5,0h30.796875a5,5 0 0 1 5,5v11a5,5 0 0 1 -5,5h-30.796875a5,5 0 0 1 -5,-5v-11a5,5 0 0 1 5,-5z" style="stroke: rgb(51, 51, 51); fill: none; stroke-width: 1px;"/></g><g id="node-name-LeakyRelu_6" class="node graph-node" transform="translate(523.09375,120.75537109375)" style="opacity: 1;"><g class="node-item node-item-type node-item-type-activation" transform="translate(0,0)"><path d="M5,0h57.375a5,5 0 0 1 5,5v11.0302734375a5,5 0 0 1 -5,5h-57.375a5,5 0 0 1 -5,-5v-11.0302734375a5,5 0 0 1 5,-5z" style="stroke: rgb(0, 0, 0); fill: rgb(112, 41, 33); stroke-width: 0;"/><text x="6" y="15" style="font-family: -apple-system, BlinkMacSystemFont, &quot;Segoe WPC&quot;, &quot;Segoe UI&quot;, Ubuntu, &quot;Droid Sans&quot;, sans-serif, &quot;PingFang SC&quot;; font-size: 11px; text-rendering: geometricprecision; fill: rgb(255, 255, 255);">LeakyRelu</text><title>LeakyRelu_6</title></g><path class="node border" d="M5,0h57.375a5,5 0 0 1 5,5v11.0302734375a5,5 0 0 1 -5,5h-57.375a5,5 0 0 1 -5,-5v-11.0302734375a5,5 0 0 1 5,-5z" style="stroke: rgb(51, 51, 51); fill: none; stroke-width: 1px;"/></g><g id="node-name-MaxPool_7" class="node graph-node" transform="translate(615.3515625,120.7705078125)" style="opacity: 1;"><g class="node-item node-item-type node-item-type-pool" transform="translate(0,0)"><path d="M5,0h48.515625a5,5 0 0 1 5,5v11a5,5 0 0 1 -5,5h-48.515625a5,5 0 0 1 -5,-5v-11a5,5 0 0 1 5,-5z" style="stroke: rgb(0, 0, 0); fill: rgb(51, 85, 51); stroke-width: 0;"/><text x="6" y="15" style="font-family: -apple-system, BlinkMacSystemFont, &quot;Segoe WPC&quot;, &quot;Segoe UI&quot;, Ubuntu, &quot;Droid Sans&quot;, sans-serif, &quot;PingFang SC&quot;; font-size: 11px; text-rendering: geometricprecision; fill: rgb(255, 255, 255);">MaxPool</text><title>MaxPool_7</title></g><path class="node border" d="M5,0h48.515625a5,5 0 0 1 5,5v11a5,5 0 0 1 -5,5h-48.515625a5,5 0 0 1 -5,-5v-11a5,5 0 0 1 5,-5z" style="stroke: rgb(51, 51, 51); fill: none; stroke-width: 1px;"/></g><g id="node-name-Conv_8" class="node graph-node" transform="translate(698.75,94.5205078125)" style="opacity: 1;"><g class="node-item node-item-type node-item-type-layer" transform="translate(0,0)"><path d="M5,0h30.796875a5,5 0 0 1 5,5v11a5,5 0 0 1 -5,5h-30.796875a5,5 0 0 1 -5,-5v-11a5,5 0 0 1 5,-5z" style="stroke: rgb(0, 0, 0); fill: rgb(51, 85, 136); stroke-width: 0;"/><text x="6" y="15" style="font-family: -apple-system, BlinkMacSystemFont, &quot;Segoe WPC&quot;, &quot;Segoe UI&quot;, Ubuntu, &quot;Droid Sans&quot;, sans-serif, &quot;PingFang SC&quot;; font-size: 11px; text-rendering: geometricprecision; fill: rgb(255, 255, 255);">Conv</text><title>Conv_8</title></g><path class="node border" d="M5,0h30.796875a5,5 0 0 1 5,5v11a5,5 0 0 1 -5,5h-30.796875a5,5 0 0 1 -5,-5v-11a5,5 0 0 1 5,-5z" style="stroke: rgb(51, 51, 51); fill: none; stroke-width: 1px;"/></g><g id="node-name-LeakyRelu_9" class="node graph-node" transform="translate(759.546875,94.50537109375)" style="opacity: 1;"><g class="node-item node-item-type node-item-type-activation" transform="translate(0,0)"><path d="M5,0h57.375a5,5 0 0 1 5,5v11.0302734375a5,5 0 0 1 -5,5h-57.375a5,5 0 0 1 -5,-5v-11.0302734375a5,5 0 0 1 5,-5z" style="stroke: rgb(0, 0, 0); fill: rgb(112, 41, 33); stroke-width: 0;"/><text x="6" y="15" style="font-family: -apple-system, BlinkMacSystemFont, &quot;Segoe WPC&quot;, &quot;Segoe UI&quot;, Ubuntu, &quot;Droid Sans&quot;, sans-serif, &quot;PingFang SC&quot;; font-size: 11px; text-rendering: geometricprecision; fill: rgb(255, 255, 255);">LeakyRelu</text><title>LeakyRelu_9</title></g><path class="node border" d="M5,0h57.375a5,5 0 0 1 5,5v11.0302734375a5,5 0 0 1 -5,5h-57.375a5,5 0 0 1 -5,-5v-11.0302734375a5,5 0 0 1 5,-5z" style="stroke: rgb(51, 51, 51); fill: none; stroke-width: 1px;"/></g><g id="node-name-MaxPool_10" class="node graph-node" transform="translate(854.7734375,94.5205078125)" style="opacity: 1;"><g class="node-item node-item-type node-item-type-pool" transform="translate(0,0)"><path d="M5,0h48.515625a5,5 0 0 1 5,5v11a5,5 0 0 1 -5,5h-48.515625a5,5 0 0 1 -5,-5v-11a5,5 0 0 1 5,-5z" style="stroke: rgb(0, 0, 0); fill: rgb(51, 85, 51); stroke-width: 0;"/><text x="6" y="15" style="font-family: -apple-system, BlinkMacSystemFont, &quot;Segoe WPC&quot;, &quot;Segoe UI&quot;, Ubuntu, &quot;Droid Sans&quot;, sans-serif, &quot;PingFang SC&quot;; font-size: 11px; text-rendering: geometricprecision; fill: rgb(255, 255, 255);">MaxPool</text><title>MaxPool_10</title></g><path class="node border" d="M5,0h48.515625a5,5 0 0 1 5,5v11a5,5 0 0 1 -5,5h-48.515625a5,5 0 0 1 -5,-5v-11a5,5 0 0 1 5,-5z" style="stroke: rgb(51, 51, 51); fill: none; stroke-width: 1px;"/></g><g id="node-name-Reshape_12" class="node graph-node" transform="translate(941.140625,94.5205078125)" style="opacity: 1;"><g class="node-item node-item-type node-item-type-shape" transform="translate(0,0)"><path d="M5,0h49.0625a5,5 0 0 1 5,5v11a5,5 0 0 1 -5,5h-49.0625a5,5 0 0 1 -5,-5v-11a5,5 0 0 1 5,-5z" style="stroke: rgb(0, 0, 0); fill: rgb(108, 79, 71); stroke-width: 0;"/><text x="6" y="15" style="font-family: -apple-system, BlinkMacSystemFont, &quot;Segoe WPC&quot;, &quot;Segoe UI&quot;, Ubuntu, &quot;Droid Sans&quot;, sans-serif, &quot;PingFang SC&quot;; font-size: 11px; text-rendering: geometricprecision; fill: rgb(255, 255, 255);">Reshape</text><title>Reshape_12</title></g><path class="node border" d="M5,0h49.0625a5,5 0 0 1 5,5v11a5,5 0 0 1 -5,5h-49.0625a5,5 0 0 1 -5,-5v-11a5,5 0 0 1 5,-5z" style="stroke: rgb(51, 51, 51); fill: none; stroke-width: 1px;"/></g><g id="node-name-Gemm_13" class="node graph-node" transform="translate(1020.203125,21.0205078125)" style="opacity: 1;"><g class="node-item node-item-type node-item-type-layer" transform="translate(0,0)"><path d="M5,0h37.90625a5,5 0 0 1 5,5v11a5,5 0 0 1 -5,5h-37.90625a5,5 0 0 1 -5,-5v-11a5,5 0 0 1 5,-5z" style="stroke: rgb(0, 0, 0); fill: rgb(51, 85, 136); stroke-width: 0;"/><text x="6" y="15" style="font-family: -apple-system, BlinkMacSystemFont, &quot;Segoe WPC&quot;, &quot;Segoe UI&quot;, Ubuntu, &quot;Droid Sans&quot;, sans-serif, &quot;PingFang SC&quot;; font-size: 11px; text-rendering: geometricprecision; fill: rgb(255, 255, 255);">Gemm</text><title>Gemm_13</title></g><path class="node border" d="M5,0h37.90625a5,5 0 0 1 5,5v11a5,5 0 0 1 -5,5h-37.90625a5,5 0 0 1 -5,-5v-11a5,5 0 0 1 5,-5z" style="stroke: rgb(51, 51, 51); fill: none; stroke-width: 1px;"/></g><g class="node" transform="translate(1152.953125,21.0205078125)" style="opacity: 1;"><g class="node-item graph-item-output" transform="translate(0,0)"><path d="M5,0h69.28125a5,5 0 0 1 5,5v11a5,5 0 0 1 -5,5h-69.28125a5,5 0 0 1 -5,-5v-11a5,5 0 0 1 5,-5z" style="stroke: rgb(0, 0, 0); fill: rgb(238, 238, 238); stroke-width: 0;"/><text x="6" y="15" style="font-family: -apple-system, BlinkMacSystemFont, &quot;Segoe WPC&quot;, &quot;Segoe UI&quot;, Ubuntu, &quot;Droid Sans&quot;, sans-serif, &quot;PingFang SC&quot;; font-size: 11px; text-rendering: geometricprecision;">output_prob</text><title>float32[batch_size,2]</title></g><path class="node border" d="M5,0h69.28125a5,5 0 0 1 5,5v11a5,5 0 0 1 -5,5h-69.28125a5,5 0 0 1 -5,-5v-11a5,5 0 0 1 5,-5z" style="stroke: rgb(51, 51, 51); fill: none; stroke-width: 1px;"/></g></g></g></svg>